HIERARCHY
ROOT Hips
{
    OFFSET 0.000000 0.000000 0.000000
    CHANNELS 6 Xposition Yposition Zposition Zrotation Xrotation Yrotation
    JOINT Spine
    {
        OFFSET -0.000000 7.750029 0.000000
        CHANNELS 3 Zrotation Xrotation Yrotation
        JOINT Spine1
        {
            OFFSET -0.000000 19.767460 0.000000
            CHANNELS 3 Zrotation Xrotation Yrotation
            JOINT Neck
            {
                OFFSET -0.000000 19.686279 1.789662
                CHANNELS 3 Zrotation Xrotation Yrotation
                JOINT Head
                {
                    OFFSET -0.000000 13.231757 -1.890251
                    CHANNELS 3 Zrotation Xrotation Yrotation
                    End Site
                    {
                        OFFSET -0.000000 23.628138 0.000000
                    }
                }
            }
            JOINT LeftShoulder
            {
                OFFSET 3.736819 16.910755 -0.280982
                CHANNELS 3 Zrotation Xrotation Yrotation
                JOINT LeftArm
                {
                    OFFSET 13.626117 0.000000 0.000000
                    CHANNELS 3 Zrotation Xrotation Yrotation
                    JOINT LeftForeArm
                    {
                        OFFSET 31.364786 0.000000 0.000000
                        CHANNELS 3 Zrotation Xrotation Yrotation
                        JOINT LeftHand
                        {
                            OFFSET 23.389509 0.000000 0.000000
                            CHANNELS 3 Zrotation Xrotation Yrotation
                            End Site
                            {
                                OFFSET 14.176883 0.000000 0.000000
                            }
                        }
                    }
                }
            }
            JOINT RightShoulder
            {
                OFFSET -3.821718 16.910755 -0.280982
                CHANNELS 3 Zrotation Xrotation Yrotation
                JOINT RightArm
                {
                    OFFSET -13.626117 0.000000 0.000000
                    CHANNELS 3 Zrotation Xrotation Yrotation
                    JOINT RightForeArm
                    {
                        OFFSET -31.364786 0.000000 0.000000
                        CHANNELS 3 Zrotation Xrotation Yrotation
                        JOINT RightHand
                        {
                            OFFSET -23.389509 0.000000 0.000000
                            CHANNELS 3 Zrotation Xrotation Yrotation
                            End Site
                            {
                                OFFSET -14.176883 0.000000 0.000000
                            }
                        }
                    }
                }
            }
        }
    }
    JOINT LeftUpLeg
    {
        OFFSET 9.451255 0.000000 0.000000
        CHANNELS 3 Zrotation Xrotation Yrotation
        JOINT LeftLeg
        {
            OFFSET -0.000000 -41.898624 0.000000
            CHANNELS 3 Zrotation Xrotation Yrotation
            JOINT LeftFoot
            {
                OFFSET -0.000000 -38.481331 0.000000
                CHANNELS 3 Zrotation Xrotation Yrotation
                JOINT LeftToeBase
                {
                    OFFSET -0.000000 -6.143315 14.176883
                    CHANNELS 3 Zrotation Xrotation Yrotation
                    End Site
                    {
                        OFFSET -0.000000 0.000000 3.780502
                    }
                }
            }
        }
    }
    JOINT RightUpLeg
    {
        OFFSET -9.451255 0.000000 0.000000
        CHANNELS 3 Zrotation Xrotation Yrotation
        JOINT RightLeg
        {
            OFFSET -0.000000 -41.898624 0.000000
            CHANNELS 3 Zrotation Xrotation Yrotation
            JOINT RightFoot
            {
                OFFSET -0.000000 -38.481331 0.000000
                CHANNELS 3 Zrotation Xrotation Yrotation
                JOINT RightToeBase
                {
                    OFFSET -0.000000 -6.143315 14.176883
                    CHANNELS 3 Zrotation Xrotation Yrotation
                    End Site
                    {
                        OFFSET -0.000000 0.000000 3.780502
                    }
                }
            }
        }
    }
}
MOTION
Frames:    4
Frame Time:    0.010000
-22.504292    86.656532    -40.758728    -8.255142    17.465832    -148.408585    5.350846    -4.388756    8.376024    -4.637007    1.158748    8.217779    -6.682569    39.670925    -9.112175    20.222633    -17.739805    -5.150021    9.339586    3.041176    4.481391    -66.459770    38.940994    1.190285    20.461180    -24.965488    -59.358536    -28.868063    -12.994905    -3.339892    -10.909719    10.405193    3.442683    72.211723    42.615528    20.583332    -6.928166    -7.183616    15.297854    14.867487    -5.107968    8.844155    5.643147    -1.525140    -15.077538    -5.678783    42.130974    -7.826078    -0.854198    -19.019594    12.923237    0.000000    0.000000    0.000000    -6.926197    16.400700    -10.243099    8.395968    35.836594    2.288151    -11.768007    -18.298616    -37.281303    0.000000    0.000000    0.000000    
-22.448467    86.641899    -40.725689    -8.186790    17.477308    -148.585571    5.303421    -4.295221    8.233877    -4.979392    1.265717    8.089897    -6.745599    39.066269    -8.786208    20.282007    -17.091002    -4.871603    9.518602    2.959984    4.701220    -66.593803    39.141026    0.806040    20.536942    -24.570875    -58.579178    -28.313681    -12.713793    -3.396013    -10.557364    10.214756    3.429126    71.759026    42.996620    20.735617    -6.667780    -7.664760    15.461488    13.890667    -5.708710    8.713160    5.692100    -1.542559    -15.057303    -5.705574    42.127575    -7.789143    -0.945914    -19.136980    13.033340    0.000000    0.000000    0.000000    -6.966261    16.279348    -10.248545    8.441756    35.935200    2.306771    -11.702193    -18.407806    -37.145180    0.000000    0.000000    0.000000    
-22.387968    86.637543    -40.662212    -8.105506    17.355690    -148.786514    5.170284    -4.318662    8.124314    -5.172405    1.285770    7.987325    -6.651559    39.070030    -8.672835    20.300137    -17.114773    -4.721585    9.535840    2.884544    4.638261    -66.767212    39.326271    0.657814    20.442192    -24.541142    -58.134151    -27.788502    -13.013844    -2.741202    -10.376667    10.095394    3.513162    71.455101    43.173824    20.817707    -6.966659    -7.363890    15.369516    14.250182    -5.338415    8.758702    5.657153    -1.711280    -15.043284    -5.746453    42.128712    -7.601610    -0.880306    -19.021135    13.061218    0.000000    0.000000    0.000000    -7.065283    16.003992    -10.353599    8.394094    36.073383    2.443216    -11.716281    -18.494101    -37.071438    0.000000    0.000000    0.000000    
-22.330379    86.621979    -40.612041    -7.994831    17.349438    -149.020340    5.114666    -4.266523    8.003340    -5.323001    1.343171    7.875150    -6.104745    39.348274    -8.791938    19.830595    -17.709576    -4.774788    9.573184    2.998902    4.406441    -66.689453    39.313614    0.220254    20.168871    -24.225889    -57.507580    -27.302668    -13.003859    -2.665449    -10.378646    10.577724    3.076398    70.396530    43.465813    22.237137    -6.849169    -7.307883    15.128239    14.177378    -5.306216    8.855700    5.711375    -1.782883    -14.983337    -5.757435    42.161022    -7.556492    -1.007440    -19.137196    13.181551    0.000000    0.000000    0.000000    -7.091281    15.818807    -10.383955    8.182480    36.202137    3.017571    -11.082304    -18.794127    -36.934143    0.000000    0.000000    0.000000    
